<svg id="Layer_1" data-name="Layer 1" xmlns="http://www.w3.org/2000/svg" viewBox="0 0 1322.57 667.7">
  <defs>
    <style>
      .cls-1 {
        fill: #f2f2f2;
      }
    </style>
  </defs>
  <title>alex-wilding-logo</title>
  <text x="-20.58" y="-40.79"/>  <text x="-20.58" y="-40.79"/>  <g>
    <path class="cls-1" d="M106.62,227l39.23,136.77H104.77l-8.36-29.66H54l-9,29.66H29L70.7,227ZM58,320.41H92.59L76,259.78Z" transform="translate(-20.58 -40.79)"/>
    <path class="cls-1" d="M197.77,227v123h57.91v13.72H156.9V227Z" transform="translate(-20.58 -40.79)"/>
    <path class="cls-1" d="M355.6,227v13.73H305.13v41.38h42.42v13.73H305.13v54.21h59v13.72H264.25V227Z" transform="translate(-20.58 -40.79)"/>
    <path class="cls-1" d="M479.16,227l-37,58.52,44.9,78.25H441.69l-27-48.09-30,48.09H366.23L406,301.27,363.45,227h45.31L434,271.61,461.2,227Z" transform="translate(-20.58 -40.79)"/>
    <path class="cls-1" d="M715.65,227l-38.4,136.77H650.62L631,289.14l-19.93,74.65H584.45L548.12,227H589.2l21.37,83,21.37-83h24l21,83.27L699.55,227Z" transform="translate(-20.58 -40.79)"/>
    <path class="cls-1" d="M767.37,227V363.79H726.49V227Z" transform="translate(-20.58 -40.79)"/>
    <path class="cls-1" d="M832.71,227v123h57.91v13.72H791.83V227Z" transform="translate(-20.58 -40.79)"/>
    <path class="cls-1" d="M899.29,363.79V227h58.42q62.25,0,62.25,68.54,0,68.24-64.52,68.23Zm40.87-11.32H950.9q14.76,0,20.44-12.37T977,295.36q0-32.37-5.62-44.69T950.9,238.34H940.16Z" transform="translate(-20.58 -40.79)"/>
    <path class="cls-1" d="M1079,227V363.79h-40.88V227Z" transform="translate(-20.58 -40.79)"/>
    <path class="cls-1" d="M1206.48,227V363.79h-31.27l-58.84-86.57v86.57h-13.73V227h25.91l64.2,93.49V227Z" transform="translate(-20.58 -40.79)"/>
    <path class="cls-1" d="M1285.14,290h58v73.84h-13l-4.44-9.42q-17,11.73-36,11.73-31.28,0-48.57-18.19t-17.29-51.25q0-32.16,18.33-52.06t47.94-19.89q39,0,47.49,38.68l-19.2,8.52V268.6l-.31-7.41q-2-24.15-23-24.15-15.48,0-21.16,12.82t-5.68,47.8q0,32.67,4.59,44.39t17.5,11.72q15.18,0,15.18-16.43V303.67h-20.34Z" transform="translate(-20.58 -40.79)"/>
    <path class="cls-1" d="M67.4,470.57V499.2H89.52v14.31H45.28V413.31H89.52v14.32H67.4v28.63H89.52v14.31Z" transform="translate(-20.58 -40.79)"/>
    <path class="cls-1" d="M112.87,513.51V413.31H135V499.2h22.12v14.31Z" transform="translate(-20.58 -40.79)"/>
    <path class="cls-1" d="M202.58,470.57V499.2H224.7v14.31H180.46V413.31H224.7v14.32H202.58v28.63H224.7v14.31Z" transform="translate(-20.58 -40.79)"/>
    <path class="cls-1" d="M277.55,484.88h22.12v21.48q-7.38,7.15-22.12,7.15h-7.37q-14.76,0-22.12-7.15V420.47q7.37-7.16,22.12-7.16h7.37q14.74,0,22.12,7.16v21.47H277.55V427.63h-7.37V499.2h7.37Z" transform="translate(-20.58 -40.79)"/>
    <path class="cls-1" d="M359.89,427.63v85.88H337.77V427.63H323V413.31h51.61v14.32Z" transform="translate(-20.58 -40.79)"/>
    <path class="cls-1" d="M427.48,413.31q14.75,0,22.12,7.16v35.79q0,5-11.06,7.15,11.06,2.14,11.06,7.16v42.94H427.48V470.57h-7.37v42.94H398V413.31Zm-7.37,14.32v28.63h7.37V427.63Z" transform="translate(-20.58 -40.79)"/>
    <path class="cls-1" d="M495.07,413.31v100.2H473V413.31Z" transform="translate(-20.58 -40.79)"/>
    <path class="cls-1" d="M547.92,484.88H570v21.48q-7.38,7.15-22.12,7.15h-7.37q-14.76,0-22.12-7.15V420.47q7.37-7.16,22.12-7.16h7.37q14.75,0,22.12,7.16v21.47H547.92V427.63h-7.37V499.2h7.37Z" transform="translate(-20.58 -40.79)"/>
    <path class="cls-1" d="M622.89,413.31q14.75,0,22.12,7.16v93H622.89V470.57h-7.38v42.94H593.39v-93q7.38-7.16,22.12-7.16Zm-7.38,14.32v28.63h7.38V427.63Z" transform="translate(-20.58 -40.79)"/>
    <path class="cls-1" d="M668.36,513.51V413.31h22.12V499.2H712.6v14.31Z" transform="translate(-20.58 -40.79)"/>
    <path class="cls-1" d="M811.51,470.57q-14.75,0-22.12-7.16V420.47q7.36-7.16,22.12-7.16h7.37q14.75,0,22.12,7.16v21.47H818.88V427.63h-7.37v28.63h7.37q14.75,0,22.12,7.15v42.95q-7.38,7.15-22.12,7.15h-7.37q-14.75,0-22.12-7.15V484.88h22.12V499.2h7.37V470.57Z" transform="translate(-20.58 -40.79)"/>
    <path class="cls-1" d="M886.47,470.57V499.2h22.12v14.31H864.35V413.31h44.24v14.32H886.47v28.63h22.12v14.31Z" transform="translate(-20.58 -40.79)"/>
    <path class="cls-1" d="M961.44,413.31q14.74,0,22.12,7.16v35.79q0,5-11.06,7.15,11.06,2.14,11.06,7.16v42.94H961.44V470.57h-7.37v42.94H932V413.31Zm-7.37,14.32v28.63h7.37V427.63Z" transform="translate(-20.58 -40.79)"/>
    <path class="cls-1" d="M1036.4,413.31h22.12v57.26l-14.74,42.94h-22.12l-14.75-42.94V413.31H1029v57.26l3.69,10.74,3.68-10.74Z" transform="translate(-20.58 -40.79)"/>
    <path class="cls-1" d="M1104,413.31v100.2h-22.12V413.31Z" transform="translate(-20.58 -40.79)"/>
    <path class="cls-1" d="M1156.84,484.88H1179v21.48q-7.37,7.15-22.12,7.15h-7.37q-14.74,0-22.12-7.15V420.47q7.38-7.16,22.12-7.16h7.37q14.75,0,22.12,7.16v21.47h-22.12V427.63h-7.37V499.2h7.37Z" transform="translate(-20.58 -40.79)"/>
    <path class="cls-1" d="M1224.44,470.57V499.2h22.12v14.31h-44.24V413.31h44.24v14.32h-22.12v28.63h22.12v14.31Z" transform="translate(-20.58 -40.79)"/>
    <path class="cls-1" d="M1292,470.57q-14.74,0-22.12-7.16V420.47q7.36-7.16,22.12-7.16h7.37q14.74,0,22.12,7.16v21.47H1299.4V427.63H1292v28.63h7.37q14.74,0,22.12,7.15v42.95q-7.37,7.15-22.12,7.15H1292q-14.74,0-22.12-7.15V484.88H1292V499.2h7.37V470.57Z" transform="translate(-20.58 -40.79)"/>
  </g>
  <text x="-20.58" y="-40.79"/>  <text x="-20.58" y="-40.79"/></svg>
