<svg id="Layer_1" data-name="Layer 1" xmlns="http://www.w3.org/2000/svg" viewBox="0 0 493.06 496">
  <defs>
    <style>
      .svg-fill {
     
        <!-- stroke: #000; -->
        stroke-miterlimit: 10;
        stroke-width: 10px;
      }

      
    </style>
  </defs>
  <title>applicance</title>
  <ellipse class="svg-fill" cx="246.53" cy="248" rx="241.53" ry="243"/>
  <g>
    <path d="M359.58,214.4a27.73,27.73,0,1,0,0-55.46,24.42,24.42,0,0,0-13.12,3.52h0l-83.78-63-.09.13,0,0a45.91,45.91,0,0,0-61.19,3.52l-29.57,29.39a82.88,82.88,0,0,0-32.35,0L237.2,230.3a82.69,82.69,0,0,0,0-32.35l29.4-29.58a46,46,0,0,0,13.48-32.64l54,40.58h0a24.19,24.19,0,0,0-2.22,10.35,28,28,0,0,0,5.73,16.83h0l-64,104.17a27.46,27.46,0,0,0-34.2,26.89v9.24H220.94V325.32H202.45v19.41a46.22,46.22,0,0,0-37,45.29v9.24H368.82V390a46.23,46.23,0,0,0-46.21-46.22H294.88v-9.24a27.47,27.47,0,0,0-5.78-16.75l64.06-104.33A18.88,18.88,0,0,0,359.58,214.4Z"/>
    <path d="M214.28,273a79.45,79.45,0,0,0,16.27-23.1L119.82,139.16a79.55,79.55,0,0,0-23.11,16.27l-6.47,6.47L207.81,279.47Z"/>
    <path d="M71.82,205.16h37.59v18.48H71.82Z"/>
    <path d="M103.26,279.53,90.19,266.46l26.14-26.14,13.07,13.07Z"/>
    <path d="M146.38,260.62h18.48v37H146.38Z"/>
  </g>
</svg>
