<svg height="512pt" viewBox="0 -5 512 512" width="512pt" xmlns="http://www.w3.org/2000/svg"><path d="m467 202.566406c24.902344 0 45-20.101562 45-45 0-24.902344-20.097656-45-45-45-7.800781 0-15 1.800782-21.300781 5.699219-.007813.007813-.015625.015625-.027344.019531l-135.953125-102.179687-.15625.214843c-.023438-.015624-.039062-.039062-.0625-.054687-29.398438-23.398437-72.296875-21.597656-99.300781 5.699219l-47.996094 47.703125c-17.402344-3.601563-35.101563-3.300781-52.5 0l158.695313 158.699219c3.300781-17.402344 3.601562-35.097657 0-52.5l47.699218-48c14.671875-14.667969 21.863282-33.816407 21.890625-52.976563l87.625 65.855469c-.003906.007812-.011719.011718-.015625.023437-2.398437 5.097657-3.597656 10.796875-3.597656 16.796875 0 10.199219 3.597656 19.800782 9.300781 27.300782 0 .003906.003907.003906.007813.007812l-103.8125 169.058594c-3.382813-.816406-6.867188-1.367188-10.496094-1.367188-24.816406 0-45 20.1875-45 45v15h-30v-30h-30v31.5c-34.199219 6.898438-60 37.203125-60 73.5v15h330v-15c0-41.398437-33.601562-75-75-75h-45v-15c0-10.257812-3.585938-19.609375-9.382812-27.1875l103.960937-169.300781c3.277344 1.175781 6.847656 1.488281 10.421875 1.488281zm0 0"/><path d="m231.199219 297.667969c11.101562-11.101563 20.101562-23.699219 26.402343-37.5l-179.703124-179.703125c-13.800782 6.304687-26.398438 15.300781-37.5 26.402344l-10.5 10.5 190.800781 190.796874zm0 0"/><path d="m0 187.566406h61v30h-61zm0 0"/><path d="m51.027344 308.257812-21.210938-21.210937 42.421875-42.421875 21.210938 21.210938zm0 0"/><path d="m121 277.566406h30v60h-30zm0 0"/></svg>