<?xml version="1.0" encoding="utf-8"?>
<!-- Generator: Adobe Illustrator 23.0.3, SVG Export Plug-In . SVG Version: 6.00 Build 0)  -->
<svg version="1.1" id="Layer_1" xmlns="http://www.w3.org/2000/svg" xmlns:xlink="http://www.w3.org/1999/xlink" x="0px" y="0px"
	 viewBox="0 0 402.4 634.7" style="enable-background:new 0 0 402.4 634.7;" xml:space="preserve">
<style type="text/css">
	.st0{fill:none;}
	.st1{fill:#080808;}
	.st2{fill:#3F3F3F;}
	.st3{fill:#0E0E0E;}
	.st4{fill:#151515;}
	.st5{fill:#F6F6F6;}
	.st6{fill:#373737;}
	.st7{fill:#0D0D0D;}
	.st8{fill:#121212;}
	.st9{fill:#0B0B0B;}
	.st10{fill:#141414;}
	.st11{fill:#131313;}
	.st12{fill:#ECECEC;}
	.st13{fill:#242424;}
	.st14{fill:#101010;}
	.st15{fill:#1C1C1C;}
	.st16{fill:#EFEFEF;}
	.st17{fill:#DCDCDC;}
	.st18{fill:#363636;}
	.st19{fill:#202020;}
	.st20{fill:#262626;}
	.st21{fill:#090909;}
	.st22{fill:#3B3B3B;}
	.st23{fill:#0C0C0C;}
	.st24{fill:#0A0A0A;}
	.st25{fill:#0F0F0F;}
	.st26{fill:#171717;}
	.st27{fill:#565656;}
	.st28{fill:#5E5E5E;}
	.st29{fill:#191919;}
	.st30{fill:#161616;}
	.st31{font-family:'ArialMT';}
	.st32{font-size:12px;}
	.st33{fill:#FFFFFF;}
	.st34{font-family:'Grotters';}
	.st35{font-size:58px;}
	.st36{letter-spacing:-3;}
</style>
<title>beetroot-logo-vector</title>
<g id="SPLINE">
	<path class="st0" d="M350.9,320.6c0,86.5,0,173,0.1,259.4c0,3.3-0.6,3.9-3.9,3.9c-95.5-0.1-191-0.1-286.6,0c-3.3,0-3.9-0.6-3.9-3.9
		c0.1-173,0.1-345.9,0-518.9c0-3.3,0.6-3.9,3.9-3.9c95.5,0.1,191,0.1,286.6,0c3.3,0,3.9,0.6,3.9,3.9
		C350.9,147.7,350.8,234.1,350.9,320.6z"/>
</g>
<g id="SPLINE-2">
	<path class="st0" d="M269,265c8.1,5.8,15.2,12.9,21.2,20.8c2.9,1.3,4.6,3.4,4.4,6.8c9.8,18.9,13.4,39.1,12.6,60.3
		c-0.2,5.6-1.6,10.9-2.1,16.4c-0.7,2.6,0.8,5.7-1.6,8c-2.8,10.6-7.8,20.2-13.5,29.5c-0.5,3.5-3.2,5.5-5.6,7.7l0,0
		c-0.4,2.3-1.2,4.2-3.8,4.7c-5,6.9-12,11.6-19.1,16c-6.3,5.9-13.6,9.8-21.6,12.9c-3.6,1.4-6.1,4.8-9.7,6.4l-4.8,3.9
		c-0.8,2.6-2.4,4.2-5.3,4.5c-2.1,1.2-4,2.9-5.3,4.9c-1.6,2.5-2.4,5.6-5.6,6.7c-3.2,3.8-3.8,8.6-4.9,13.1c-2.2,7.4,1.4,14,3.3,20.8
		c0.3,1.5,0.7,3,1.2,4.4l0,0c2.7,2.6,6.4,4.2,7.5,8.3c0.1,0.3,0.3,0.6,0.5,0.8c6.6,4.7,10.1,12.7,17.7,16.1c3.1,1.4,6.1,2.7,7.9,5.8
		c5.9,2.5,12.2,2.9,18.5,3.1c4,0,8,1.1,11.5,3.2c1,0.6,2.6,1.3,2,2.7c-0.5,1.3-2.1,1.1-3.4,0.9c-6.2-1.2-12.4-2.3-18.5-3.6
		c-5.2-1-10.7-0.5-15.7-2.4c-1.9-1-4.6-0.5-5.8-2.9l-16.1-12.3c-3.4-1.5-6.1-4.1-7.7-7.4c-7.9-10.9-14.5-22.4-18.2-35.4
		c-3.3-2.7-2.2-7.3-4.3-10.6c-0.9-1.5-1.6-3-2-4.7c-5.8-5.9-11.6-11.7-19.3-15.3c-1.8-0.8-3.2-2.4-4.7-3.7c-4.3,1.3-5.2-2.9-7.6-4.6
		c-13.4-10.1-25-21.9-33.8-36.2c-1.1-1.7-3.4-2.5-3.5-4.9c-5.5-4.1-6.5-10.8-9.8-16.3c-1.4-2.4-3.2-4.6-2.1-7.6l-4.2-13.2
		c-1-0.8-0.2-2-0.8-2.9l-2.1-15.2c-0.3-5.7-0.7-11.4,0-17.1c1.4-8.7,2.7-17.4,5.4-25.8c0.9-2.7,2.8-5,4.3-7.5c0.3-3.1,2-5.9,4.5-7.6
		c17.2-25.7,42-39.6,71.6-45.8c1.2-0.6,2.4-1.4,3.8-0.7c3,0.2,5.9-0.5,8.5-2c0.4-0.8,0.6-1.6,0.5-2.4c-1.6-2.8-3.4-5.4-5.5-7.9
		c-1.1-2-2.4-3.9-4-5.6c-1.1-1.8-1.2-3.3,0.6-4.7c4.4-1.2,5.9,2.5,7.1,5.1c1,2.1,2.6,3.9,4.7,5c1.1,1,2.1,1.5,2.8-0.4
		c0.9-2.1,0.9-4.4,0-6.5c-0.1-2.1,0.8-4.3,0.1-6.4c-0.1-1.3-0.1-2.5,0-3.8c0.2-1.7,0.3-3.9,2.7-3.6c2.2,0.2,1.6,2.4,1.5,3.8
		s0.1,2.8,0.1,4.2c-0.3,4.1,0.2,8.1,0,11.5c0,1.3,0,1.4,0,0.8c0.2-4.1-0.3-8.1,0-12.2c-0.3-4.3,0.5-8.7-1.9-12.7
		c-0.8-1.2,0.5-2.4,0.6-3.5c0.2-2.4,1.7-5.4-1.9-6.8c-0.9-0.4-1.3-1.3-1.9-1.9c-3.1-2.2-3.3-5.1-1.8-8.3c0.2-0.6,0.6-1.2,1.1-1.6
		c0.7-0.4,1.3-1,1.8-1.6c0.8-1.1,2.2-1.7,2.6-3.2c2-6.9,6.3-8.8,11.9-5.4c0.4,0.9,0.5,2,0.1,2.9c-4.8,5.5-5.1,12.1-4.6,18.9
		c0.2,2.2,0.1,4.3-0.3,6.5c-0.1,1.4-0.2,2.7-0.4,4c-0.3,2.2,1.1-0.1,1.6,0.5c1.2-0.2,2.4,0.3,3.1,1.2c1.5,2.8-0.3,5.2-0.9,7.7
		s-2.4,5-1.3,7.8c4.2-2.3,3.8-7.3,6.3-10.5c1.1-0.9,1.9-2.1,2.3-3.5c0.6-1.5,1.5-2.9,3.4-2.9c2.2-0.1,2.9,1.4,3.6,4.1
		c0.4-6.4,2.2-11.7,2.8-17.3c0.6-3.4,1.3-6.8,2.3-10.1c0.9-3.8,2-7.1,6-9c2.3-1.1,3.1-3.7,2.7-6.2c-0.9-5.2,0-10.1,1.2-15
		c0.6-2.2,0.3-4.2-1.2-5.8c-3.2-3.1-3.4-6.2-0.9-9.7c0.5-0.7,0.5-1.6,0-2.2c-0.4-0.4-0.8-0.7-1.3-1.1c-2.2-1.7-3.2-3.7-1.5-6.3
		c1.9-3.6,3.1-6.8-0.4-10.6c-2.3-2.3-2.8-5.9-1.4-8.8c1-1.9,0.1-3.7-1.5-5s-2.9-2.9-2.1-5.3c0.5-1.7,1.5-3,3.4-3.3
		c3.1-2.3,5.6,0.1,8.3,0.9c1.2,0.7,2.5,0.8,3.4-0.3c1.5-1.9,3.4-1.6,5.4-1.6l6.1,2c3.1,1.7,5.5,3.8,3.4,7.8
		c-0.4,0.6-0.3,1.5,0.4,1.9c0.2,0.1,0.4,0.2,0.6,0.2c4.3,1.2,5.2,4.5,5.5,8.3c-0.2,0.9-0.4,1.8-0.7,2.7c-0.7,2.9-1.5,5.7-2.2,8.6
		c3.1,0.1,6,1.1,8.5,3c1.5,1.1,2.3-0.2,3.2-0.9c3.4-2.8,6.9-3.1,10,0.2c2,2.1,4,2.4,6.8,1.8c7.2-1.8,11.1,2.2,9.4,9.3
		c-0.4,1.6-0.8,2.6,0.9,4c3.9,3.4,4.4,7.6,0.6,11.1c-5,4.6-6.9,9.4-4.9,15.8c-0.9,2.2-0.6,5.3-4,5.8c-2.2,1-3.2,3.2-4.9,4.8
		c-0.9,0.8-0.7,1.9,0,3c4.3,7.7,3,12.5-4.5,17c-0.9,0.6-1.8,1.2-2.8,1.7c-3.5,1.4-5.3,3.4-4.5,7.5c0.6,3.7-1.5,6.3-4.8,7.8
		c-1.8,0.8-3.6,1.6-3.5,3.9c0.1,4.3-2.7,5-6,4.5s-5.2-0.4-7,3.5c-2,4.4-6.5,2.2-10.1,1.4c-5.2-0.3-9.3-2.3-11.5-7.3
		c-1.8-1.7-4.1-2.7-6.6-3c-2.9-0.6-4.1,1.8-5.6,3.4s-2.4,3.5-4.3,4.7c-0.6,0.2-1.3,0.3-1.9,0.5c-3.8,1.9-4.4,5.4-5.1,9
		c0.3,0.7,0.7,1.4,1.3,2c4.1,2.7,9.1,2.5,13.6,4.1l22.9,5.8c2.3-1.2,3.5,0.5,4.8,1.9h0.1C261.1,257,264.9,261.2,269,265z"/>
</g>
<g id="HATCH">
	<path class="st1" d="M269,265c8.1,5.8,15.2,12.9,21.2,20.8c2.9,1.3,4.6,3.4,4.4,6.8c9.8,18.9,13.4,39.1,12.6,60.3
		c-0.2,5.6-1.6,10.9-2.1,16.4c-0.7,2.6,0.8,5.7-1.6,8c-2.8,10.6-7.8,20.2-13.5,29.5c-0.5,3.5-3.2,5.5-5.6,7.7l0,0
		c-0.4,2.3-1.2,4.2-3.8,4.7c-5,6.9-12,11.6-19.1,16c-6.3,5.9-13.6,9.8-21.6,12.9c-3.6,1.4-6.1,4.8-9.7,6.4l-4.8,3.9
		c-0.8,2.6-2.4,4.2-5.3,4.5c-2.1,1.2-4,2.9-5.3,4.9c-1.6,2.5-2.4,5.6-5.6,6.7c-3.2,3.8-3.8,8.6-4.9,13.1c-2.2,7.4,1.4,14,3.3,20.8
		c0.3,1.5,0.7,3,1.2,4.4l0,0c2.7,2.6,6.4,4.2,7.5,8.3c0.1,0.3,0.3,0.6,0.5,0.8c6.6,4.7,10.1,12.7,17.7,16.1c3.1,1.4,6.1,2.7,7.9,5.8
		c5.9,2.5,12.2,2.9,18.5,3.1c4,0,8,1.1,11.5,3.2c1,0.6,2.6,1.3,2,2.7c-0.5,1.3-2.1,1.1-3.4,0.9c-6.2-1.2-12.4-2.3-18.5-3.6
		c-5.2-1-10.7-0.5-15.7-2.4c-1.9-1-4.6-0.5-5.8-2.9l-16.1-12.3c-3.4-1.5-6.1-4.1-7.7-7.4c-7.9-10.9-14.5-22.4-18.2-35.4
		c-3.3-2.7-2.2-7.3-4.3-10.6c-0.9-1.5-1.6-3-2-4.7c-5.8-5.9-11.6-11.7-19.3-15.3c-1.8-0.8-3.2-2.4-4.7-3.7c-4.3,1.3-5.2-2.9-7.6-4.6
		c-13.4-10.1-25-21.9-33.8-36.2c-1.1-1.7-3.4-2.5-3.5-4.9c-5.5-4.1-6.5-10.8-9.8-16.3c-1.4-2.4-3.2-4.6-2.1-7.6l-4.2-13.2
		c-1-0.8-0.2-2-0.8-2.9l-2.1-15.2c-0.3-5.7-0.7-11.4,0-17.1c1.4-8.7,2.7-17.4,5.4-25.8c0.9-2.7,2.8-5,4.3-7.5c0.3-3.1,2-5.9,4.5-7.6
		c17.2-25.7,42-39.6,71.6-45.8c1.2-0.6,2.4-1.4,3.8-0.7c3,0.2,5.9-0.5,8.5-2c0.4-0.8,0.6-1.6,0.5-2.4c-1.6-2.8-3.4-5.4-5.5-7.9
		c-1.1-2-2.4-3.9-4-5.6c-1.1-1.8-1.2-3.3,0.6-4.7c4.4-1.2,5.9,2.5,7.1,5.1c1,2.1,2.6,3.9,4.7,5c1.1,1,2.1,1.5,2.8-0.4
		c0.9-2.1,0.9-4.4,0-6.5c-0.1-2.1,0.8-4.3,0.1-6.4c-0.1-1.3-0.1-2.5,0-3.8c0.2-1.7,0.3-3.9,2.7-3.6c2.2,0.2,1.6,2.4,1.5,3.8
		s0.1,2.8,0.1,4.2c-0.3,4.1,0.2,8.1,0,11.5c0,1.3,0,1.4,0,0.8c0.2-4.1-0.3-8.1,0-12.2c-0.3-4.3,0.5-8.7-1.9-12.7
		c-0.8-1.2,0.5-2.4,0.6-3.5c0.2-2.4,1.7-5.4-1.9-6.8c-0.9-0.4-1.3-1.3-1.9-1.9c-3.1-2.2-3.3-5.1-1.8-8.3c0.2-0.6,0.6-1.2,1.1-1.6
		c0.7-0.4,1.3-1,1.8-1.6c0.8-1.1,2.2-1.7,2.6-3.2c2-6.9,6.3-8.8,11.9-5.4c0.4,0.9,0.5,2,0.1,2.9c-4.8,5.5-5.1,12.1-4.6,18.9
		c0.2,2.2,0.1,4.3-0.3,6.5c-0.1,1.4-0.2,2.7-0.4,4c-0.3,2.2,1.1-0.1,1.6,0.5c1.2-0.2,2.4,0.3,3.1,1.2c1.5,2.8-0.3,5.2-0.9,7.7
		s-2.4,5-1.3,7.8c4.2-2.3,3.8-7.3,6.3-10.5c1.1-0.9,1.9-2.1,2.3-3.5c0.6-1.5,1.5-2.9,3.4-2.9c2.2-0.1,2.9,1.4,3.6,4.1
		c0.4-6.4,2.2-11.7,2.8-17.3c0.6-3.4,1.3-6.8,2.3-10.1c0.9-3.8,2-7.1,6-9c2.3-1.1,3.1-3.7,2.7-6.2c-0.9-5.2,0-10.1,1.2-15
		c0.6-2.2,0.3-4.2-1.2-5.8c-3.2-3.1-3.4-6.2-0.9-9.7c0.5-0.7,0.5-1.6,0-2.2c-0.4-0.4-0.8-0.7-1.3-1.1c-2.2-1.7-3.2-3.7-1.5-6.3
		c1.9-3.6,3.1-6.8-0.4-10.6c-2.3-2.3-2.8-5.9-1.4-8.8c1-1.9,0.1-3.7-1.5-5s-2.9-2.9-2.1-5.3c0.5-1.7,1.5-3,3.4-3.3
		c3.1-2.3,5.6,0.1,8.3,0.9c1.2,0.7,2.5,0.8,3.4-0.3c1.5-1.9,3.4-1.6,5.4-1.6l6.1,2c3.1,1.7,5.5,3.8,3.4,7.8
		c-0.4,0.6-0.3,1.5,0.4,1.9c0.2,0.1,0.4,0.2,0.6,0.2c4.3,1.2,5.2,4.5,5.5,8.3c-0.2,0.9-0.4,1.8-0.7,2.7c-0.7,2.9-1.5,5.7-2.2,8.6
		c3.1,0.1,6,1.1,8.5,3c1.5,1.1,2.3-0.2,3.2-0.9c3.4-2.8,6.9-3.1,10,0.2c2,2.1,4,2.4,6.8,1.8c7.2-1.8,11.1,2.2,9.4,9.3
		c-0.4,1.6-0.8,2.6,0.9,4c3.9,3.4,4.4,7.6,0.6,11.1c-5,4.6-6.9,9.4-4.9,15.8c-0.9,2.2-0.6,5.3-4,5.8c-2.2,1-3.2,3.2-4.9,4.8
		c-0.9,0.8-0.7,1.9,0,3c4.3,7.7,3,12.5-4.5,17c-0.9,0.6-1.8,1.2-2.8,1.7c-3.5,1.4-5.3,3.4-4.5,7.5c0.6,3.7-1.5,6.3-4.8,7.8
		c-1.8,0.8-3.6,1.6-3.5,3.9c0.1,4.3-2.7,5-6,4.5s-5.2-0.4-7,3.5c-2,4.4-6.5,2.2-10.1,1.4c-5.2-0.3-9.3-2.3-11.5-7.3
		c-1.8-1.7-4.1-2.7-6.6-3c-2.9-0.6-4.1,1.8-5.6,3.4s-2.4,3.5-4.3,4.7c-0.6,0.2-1.3,0.3-1.9,0.5c-3.8,1.9-4.4,5.4-5.1,9
		c0.3,0.7,0.7,1.4,1.3,2c4.1,2.7,9.1,2.5,13.6,4.1l22.9,5.8c2.3-1.2,3.5,0.5,4.8,1.9h0.1C261.1,257,264.9,261.2,269,265z"/>
</g>
<g id="SPLINE-3">
	<path class="st0" d="M117,167c2.8-2.7,5.7-4.6,9.6-1.8c2.2,1.6,3.5-0.4,5-1.4c5-3.4,5-3.4,1.4-8.4c-1.6-1.6-2.3-4-1.7-6.2
		c1.4-5.7-0.5-10.9-1.8-16.2c-0.1-3.3-0.7-6.6,2.4-9c3.3-0.8,4.5-3.2,4-6.3c-0.4-1.7,0.2-3.4,1.6-4.4c0.7-1.3,1.9-1.4,3.2-1.6h4.4
		c3.8,2.1,8.5,2.1,12.4,0c3.3-1.7,5.4-0.4,7.4,1.9c1.5,1.8,3.2,3.1,5.7,2.6c2.6-1,3.8,0.2,4.3,2.7c1.5,6.5-1.1,13.3-6.7,17.1
		c-3.3,2.4-4.8,6.9-2.9,10.4c2.3,4.3,1.6,9,2.3,13.4c0.3,1.8-1.1,3.1-2.6,4.2c-3.3,2.4-4.6,5.6-3.3,9.5c0.7,2.1,0.9,4.1-0.4,5.9
		c-2,2.9-0.5,4.5,2,5.5c3.7,1.5,5.1,3.7,4,7.8c-0.8,2.8,0.7,4.9,3.4,6c2,0.8,3.8,1.6,4.2,4c-0.1,2.4-1.4,4.5-2.3,6.6
		c-1,2.5-7.8,4.6-10.5,2.9c-3.8-2.4-8.4-2.7-12.1-6c-2.4-2.1-7.5-2.4-11.4-2.7c-2-0.1-3.9,0-5.9,0.5c3.6,0.1,5.9,2.8,7,6.3
		c0.7,2.2,1.6,2.4,3.4,1.6c4.7-2,9.2-1.4,13.7,0.7c1.6,0.8,3,0.4,4.6,0.2c6.1-0.7,8.6,0.8,9.6,5.5c-1,1.7-1.6,3.9-3.7,4.2
		c2-1.8,4.5-1.7,7.1-1c0.5,0.1,0.9,0.2,1.4,0.4c1.5,0.7,2.4,2,3.6,3.1c2.5,2.2,2.7,4.5,0.4,6.9c-5.9,3.1-10.7,7.8-16.2,11.4
		c-3.6,2.4-7.6,5.2-11.3-0.6c-1.2-1.8-3.9-0.6-5.8-0.1c-2.6,0.6-4.3,0.1-5-2.8c-0.9-4.1-5.9-2.5-7.7-5.4c-1.1-1.3-2-2.8-1.7-4.5
		c0.4-1.9-1-2.5-2-3.4h0.1c-3.4,0.7-5.9-0.6-7.8-3.3c-1.2-0.3-2.2-1-2.8-2.1c-1.7-2.7-5.1-5.2-1-8.6c1.8-2.2,1.2-3.8-1.3-5
		c-1.3-0.7-2.9-1-3.6-2.6c-3.2-1.2-5.2-3-3.9-7c0.8-2.4-0.3-4.4-2.6-5.4c-2-0.8-3.4-2.6-3.8-4.7l0,0c-2.4-2.9-1.1-5.8,0.1-8.6
		c0.4-0.9,1.4-1.6,1-2.9l0,0c-1.9-4.5,0.6-7.3,5.4-8C112.2,168,114.6,167.1,117,167z"/>
</g>
<g id="HATCH-2">
	<path class="st1" d="M117,167c2.8-2.7,5.7-4.6,9.6-1.8c2.2,1.6,3.5-0.4,5-1.4c5-3.4,5-3.4,1.4-8.4c-1.6-1.6-2.3-4-1.7-6.2
		c1.4-5.7-0.5-10.9-1.8-16.2c-0.1-3.3-0.7-6.6,2.4-9c3.3-0.8,4.5-3.2,4-6.3c-0.4-1.7,0.2-3.4,1.6-4.4c0.7-1.3,1.9-1.4,3.2-1.6h4.4
		c3.8,2.1,8.5,2.1,12.4,0c3.3-1.7,5.4-0.4,7.4,1.9c1.5,1.8,3.2,3.1,5.7,2.6c2.6-1,3.8,0.2,4.3,2.7c1.5,6.5-1.1,13.3-6.7,17.1
		c-3.3,2.4-4.8,6.9-2.9,10.4c2.3,4.3,1.6,9,2.3,13.4c0.3,1.8-1.1,3.1-2.6,4.2c-3.3,2.4-4.6,5.6-3.3,9.5c0.7,2.1,0.9,4.1-0.4,5.9
		c-2,2.9-0.5,4.5,2,5.5c3.7,1.5,5.1,3.7,4,7.8c-0.8,2.8,0.7,4.9,3.4,6c2,0.8,3.8,1.6,4.2,4c-0.1,2.4-1.4,4.5-2.3,6.6
		c-1,2.5-7.8,4.6-10.5,2.9c-3.8-2.4-8.4-2.7-12.1-6c-2.4-2.1-7.5-2.4-11.4-2.7c-2-0.1-3.9,0-5.9,0.5c3.6,0.1,5.9,2.8,7,6.3
		c0.7,2.2,1.6,2.4,3.4,1.6c4.7-2,9.2-1.4,13.7,0.7c1.6,0.8,3,0.4,4.6,0.2c6.1-0.7,8.6,0.8,9.6,5.5c-1,1.7-1.6,3.9-3.7,4.2
		c2-1.8,4.5-1.7,7.1-1c0.5,0.1,0.9,0.2,1.4,0.4c1.5,0.7,2.4,2,3.6,3.1c2.5,2.2,2.7,4.5,0.4,6.9c-5.9,3.1-10.7,7.8-16.2,11.4
		c-3.6,2.4-7.6,5.2-11.3-0.6c-1.2-1.8-3.9-0.6-5.8-0.1c-2.6,0.6-4.3,0.1-5-2.8c-0.9-4.1-5.9-2.5-7.7-5.4c-1.1-1.3-2-2.8-1.7-4.5
		c0.4-1.9-1-2.5-2-3.4h0.1c-3.4,0.7-5.9-0.6-7.8-3.3c-1.2-0.3-2.2-1-2.8-2.1c-1.7-2.7-5.1-5.2-1-8.6c1.8-2.2,1.2-3.8-1.3-5
		c-1.3-0.7-2.9-1-3.6-2.6c-3.2-1.2-5.2-3-3.9-7c0.8-2.4-0.3-4.4-2.6-5.4c-2-0.8-3.4-2.6-3.8-4.7l0,0c-2.4-2.9-1.1-5.8,0.1-8.6
		c0.4-0.9,1.4-1.6,1-2.9c-1.9-4.5,0.6-7.3,5.4-8C112.2,168,114.6,167.1,117,167z"/>
</g>
<g id="SPLINE-4">
	<path class="st0" d="M173.8,203c-1-0.8-2.1-1.4-3.4-1.5c-4.5-0.9-7.1-4.8-5.6-9.1c1.1-3.2,0-4.3-2.6-5.2s-5.2-2.4-5.8-5.7
		c-0.3-1.4-0.5-3.3,1.5-3.3c3.3-0.1,2.2-1.8,1.6-3.5c-2-5.8-0.8-9.6,4.4-12.9c0.7-0.4,1.6-0.9,1.3-1.8c-1.6-4.3,0.4-9-2.4-13.3
		c-3-4.5-0.8-10.9,4.3-13c3.6-1.5,4.5-3.8,4.9-7.2c0.3-2.6-0.6-5.2,0.5-7.8c0.4-1-0.7-1.6-1.8-1.5c-0.4-0.5-0.4-1.3,0-1.8
		c-0.6-3.2,2.2-4.2,4-5.8c0.8-1.1,2.2-1.6,3-2.7c1.5-2.2,0.8-4.6,0.5-6.9c-0.8-8,1.3-11.3,8.9-13.2c2-0.5,2.2-2,2.8-3.4
		c3.1-7.4,8.1-8.6,14.4-3.2c2.6,1,5.4,1.4,8.2,1.1c4.9-0.2,6.3,1.3,6.4,6.3c-0.1,0.8,0,1.6,0.4,2.3l7.6,0.8c3.7,1.1,5.5,3.4,5.1,7.4
		c-0.2,2,0.5,3.9,0.7,5.9c0.2,1.1,0.9,2.1,1.8,2.7c4.1,1.9,4.3,4.7,2.6,8.6c-1.1,2.5-0.1,6.1,2.1,7c4.1,1.8,3,4.3,2,6.9
		c-0.7,1.8-0.5,4.3-2.8,5.3c-1.1,0-2.2,0.1-3.2,0.5c-3.1,0.7-5.3,2.2-5,5.8c0,0.5,0,1-0.1,1.5c-0.9,3.4-3.7,3.8-6.6,4
		c-0.5,0.1-0.9,0.1-1.4,0.1c-2.3-0.5-4.6-0.5-6.9-0.2c-1.8,0.3-2.9-0.9-3.8-2.2s-0.8-2.3,0.6-3.1c0.1-0.1,0.3-0.1,0.4-0.1
		c-0.4,0-0.8,0.1-1.2,0.2c-2,2.5-0.5,5.6-1.6,8.3c0.3,2.8-0.3,5.1-2.8,6.6c-1.4,0.2-2.7-0.8-2.9-2.2c0-0.2,0-0.5,0-0.7
		c0.6-5-0.8-10.1,0.1-15.1c1.2-2.5,1.2-5.5,0-8c-1.2-2.5-0.9-5-0.1-8c1.3-4.8,2.6-10.2,0.2-15.3c0.8,3,1.1,6.1,0.8,9.2
		c0.1,1.2-0.7,2.3-1.8,2.7c-3.9,0.6-4.9-3.2-7.2-5c-1.1-0.9-1.5-2.8-3.4-2.9c-0.6-0.1-1.2-0.1-1.8,0c-2.8,1.3-3.9,3.3-2.8,6.3
		c0.4,1.2,0.3,2.5-0.2,3.6c-1.2,2.6,1.5,4.6,1.2,7.1c1,5,5.2,5.9,9.1,7.2c1.4,1.2,2.6,2.7,3.4,4.3c4.5,5.6,2.6,12.1,2,18.1
		c-0.4,4.3-4.7,2-7.5,1.7c-3-0.3-5.4-2.3-6.8-3.1c3.7,1.4,7.2,5.1,11.3,8c0.1,0.5,0.3,0.9,0.4,1.4c2.4,3.6,1.6,7.8,1.7,11.7
		c0.2,4.7-0.3,9.3-1.5,13.8h-2.8c-3.9-2.9-8.3-5-13.1-5.9c2.8,3.4,9.7,0.9,12.1,6.9c0.4,2.3-0.4,4.9,1.9,6.7
		c-1.3,5.8-1.6,6.2-7.6,5.1c-4.6-0.9-9-1-13.5,0.6C176.8,204.6,175,205,173.8,203z"/>
</g>
<g id="HATCH-3">
	<path class="st2" d="M173.8,203c-1-0.8-2.1-1.4-3.4-1.5c-4.5-0.9-7.1-4.8-5.6-9.1c1.1-3.2,0-4.3-2.6-5.2s-5.2-2.4-5.8-5.7
		c-0.3-1.4-0.5-3.3,1.5-3.3c3.3-0.1,2.2-1.8,1.6-3.5c-2-5.8-0.8-9.6,4.4-12.9c0.7-0.4,1.6-0.9,1.3-1.8c-1.6-4.3,0.4-9-2.4-13.3
		c-3-4.5-0.8-10.9,4.3-13c3.6-1.5,4.5-3.8,4.9-7.2c0.3-2.6-0.6-5.2,0.5-7.8c0.4-1-0.7-1.6-1.8-1.5c-0.4-0.5-0.4-1.3,0-1.8
		c-0.6-3.2,2.2-4.2,4-5.8c0.8-1.1,2.2-1.6,3-2.7c1.5-2.2,0.8-4.6,0.5-6.9c-0.8-8,1.3-11.3,8.9-13.2c2-0.5,2.2-2,2.8-3.4
		c3.1-7.4,8.1-8.6,14.4-3.2c2.6,1,5.4,1.4,8.2,1.1c4.9-0.2,6.3,1.3,6.4,6.3c-0.1,0.8,0,1.6,0.4,2.3l7.6,0.8c3.7,1.1,5.5,3.4,5.1,7.4
		c-0.2,2,0.5,3.9,0.7,5.9c0.2,1.1,0.9,2.1,1.8,2.7c4.1,1.9,4.3,4.7,2.6,8.6c-1.1,2.5-0.1,6.1,2.1,7c4.1,1.8,3,4.3,2,6.9
		c-0.7,1.8-0.5,4.3-2.8,5.3c-1.1,0-2.2,0.1-3.2,0.5c-3.1,0.7-5.3,2.2-5,5.8c0,0.5,0,1-0.1,1.5c-0.9,3.4-3.7,3.8-6.6,4
		c-0.5,0.1-0.9,0.1-1.4,0.1c-2.3-0.5-4.6-0.5-6.9-0.2c-1.8,0.3-2.9-0.9-3.8-2.2s-0.8-2.3,0.6-3.1c0.1-0.1,0.3-0.1,0.4-0.1
		c-0.4,0-0.8,0.1-1.2,0.2c-2,2.5-0.5,5.6-1.6,8.3c0.3,2.8-0.3,5.1-2.8,6.6c-1.4,0.2-2.7-0.8-2.9-2.2c0-0.2,0-0.5,0-0.7
		c0.6-5-0.8-10.1,0.1-15.1c1.2-2.5,1.2-5.5,0-8c-1.2-2.5-0.9-5-0.1-8c1.3-4.8,2.6-10.2,0.2-15.3c0.8,3,1.1,6.1,0.8,9.2
		c0.1,1.2-0.7,2.3-1.8,2.7c-3.9,0.6-4.9-3.2-7.2-5c-1.1-0.9-1.5-2.8-3.4-2.9c-0.6-0.1-1.2-0.1-1.8,0c-2.8,1.3-3.9,3.3-2.8,6.3
		c0.4,1.2,0.3,2.5-0.2,3.6c-1.2,2.6,1.5,4.6,1.2,7.1c1,5,5.2,5.9,9.1,7.2c1.4,1.2,2.6,2.7,3.4,4.3c4.5,5.6,2.6,12.1,2,18.1
		c-0.4,4.3-4.7,2-7.5,1.7c-3-0.3-5.4-2.3-6.8-3.1c3.7,1.4,7.2,5.1,11.3,8c0.1,0.5,0.3,0.9,0.4,1.4c2.4,3.6,1.6,7.8,1.7,11.7
		c0.2,4.7-0.3,9.3-1.5,13.8h-2.8c-3.9-2.9-8.3-5-13.1-5.9c2.8,3.4,9.7,0.9,12.1,6.9c0.4,2.3-0.4,4.9,1.9,6.7
		c-1.3,5.8-1.6,6.2-7.6,5.1c-4.6-0.9-9-1-13.5,0.6C176.8,204.6,175,205,173.8,203z"/>
</g>
<g id="SPLINE-5">
	<path class="st0" d="M179.7,232c1-4.4-3.9-5.6-4.9-8.9c-1.6-2.3-0.7-3.9,1.3-5.3c2.1-0.8,3.2,0.9,4.7,1.8c1.8,2.1,4.3,3.4,6.1,5.6
		c0.3,1.4-0.4,2.2-1.6,2.7c-0.9,1.3-0.5,2.5,0.1,3.7c0.7,2,0.2,2.7-1.9,1.9C182.3,232.5,181.6,230.8,179.7,232z"/>
</g>
<g id="HATCH-4">
	<path class="st3" d="M179.7,232c1-4.4-3.9-5.6-4.9-8.9c-1.6-2.3-0.7-3.9,1.3-5.3c2.1-0.8,3.2,0.9,4.7,1.8c1.8,2.1,4.3,3.4,6.1,5.6
		c0.3,1.4-0.4,2.2-1.6,2.7c-0.9,1.3-0.5,2.5,0.1,3.7c0.7,2,0.2,2.7-1.9,1.9C182.3,232.5,181.6,230.8,179.7,232z"/>
</g>
<g id="SPLINE-6">
	<path class="st0" d="M197.6,245.9c-0.4,1.8-0.4,1.8-4.8,1.9l-4.7-7.5c-0.5-1,0.1-1.7,0.8-2.3c3.4,1.2,4.4,4.9,7,7
		C196.4,245.3,196.5,246.4,197.6,245.9z"/>
</g>
<g id="HATCH-5">
	<path class="st4" d="M197.6,245.9c-0.4,1.8-0.4,1.8-4.8,1.9l-4.7-7.5c-0.5-1,0.1-1.7,0.8-2.3c3.4,1.2,4.4,4.9,7,7
		C196.4,245.3,196.5,246.4,197.6,245.9z"/>
</g>
<g id="SPLINE-7">
	<path class="st0" d="M189.1,238.2l-1,2c-1.9-2-3.5-4.3-4.7-6.7c0.9-0.3,1.6-1,1.9-1.9c1.9,1.1,2.6,3.1,3.8,4.8
		C189.6,236.8,189.6,237.6,189.1,238.2C189.1,238.2,189.1,238.2,189.1,238.2z"/>
</g>
<g id="HATCH-6">
	<path class="st4" d="M189.1,238.2l-1,2c-1.9-2-3.5-4.3-4.7-6.7c0.9-0.3,1.6-1,1.9-1.9c1.9,1.1,2.6,3.1,3.8,4.8
		C189.6,236.8,189.6,237.6,189.1,238.2C189.1,238.2,189.1,238.2,189.1,238.2z"/>
</g>
<g id="SPLINE-8">
	<path class="st0" d="M295.4,181c1.3-1.9,2.7-3.9,4-5.8C300.9,180.1,300.3,181,295.4,181z"/>
</g>
<g id="HATCH-7">
	<path class="st5" d="M295.4,181c1.3-1.9,2.7-3.9,4-5.8C300.9,180.1,300.3,181,295.4,181z"/>
</g>
<g id="SPLINE-9">
	<path class="st0" d="M223.3,145c2.1-1.1,4.4-1.8,5.8-3.9c0.3-0.3,0.5-0.7,0.7-1.1c0.6-3.4,3.8-4.4,5.8-6.5l2.9,1
		c-2,2.6,1,2.7,1.9,3.8c0.2-0.3,0.5-0.3,0.7-0.2c0.1,0,0.1,0.1,0.2,0.2c3.9,1.3,2.3,3.8,0.8,5.5c-2.8,3.1-2.3,5.2,0.9,7.8
		c2,1.8,3.9,4.1,1.6,7.8c-2.1,3.6-2.9,7.8-2,11.9c0.9,4.8,1.1,9.6-5.1,11.3c-1.1,0.3-2,1.2-2.2,2.3c-0.8,4.8-3.6,9.2-3.4,14.3
		c-1.6,1.9-3.5,0.8-5.3,0.5c-5.2-0.9-10.5-2.9-15.1,1.9c-1.2,1.2-3,0.6-4.4-0.4c0-3.3,0-6.7,0-10c-0.2-3.9,2.1-7.5,5.7-9.1
		c1.5-0.5,2.9-1.1,4.2-2c1.6-0.9,3.9-0.4,4.8-2.6c-1.7-1.5-3.2-0.4-4.7,0.2c-1.5,0.3-2.6,1.6-4.2,1.6c-2.8,0.4-4.6,4.8-7.9,1.2
		c-0.9,2.1-0.4,4-1.6,5.5l-0.6-0.6c-0.8-5-0.2-10.1-0.4-15.1c0-0.5,0-1,0.1-1.5c2.2-4.2,3.3-9,6.9-12.4c1.1-1.9,2.4-3.6,3.6-5.5
		s2.9-2.7,5.2-1.7c2.2,1.5,4.1,2,4.2-1.7C222.2,146.6,222.6,145.6,223.3,145z"/>
</g>
<g id="HATCH-8">
	<path class="st2" d="M223.9,145.4c2.1-1.1,4.4-1.8,5.8-3.9c0.3-0.3,0.5-0.7,0.7-1.1c0.6-3.4,3.8-4.4,5.8-6.5l2.9,1
		c-2,2.6,1,2.7,1.9,3.8c0.1-0.3,0.5-0.3,0.7-0.2c0.1,0,0.1,0.1,0.2,0.2c3.9,1.3,2.3,3.8,0.8,5.5c-2.8,3.1-2.3,5.2,0.9,7.8
		c2.1,1.7,3.9,4.1,1.6,7.8c-2.1,3.6-2.8,7.8-2,11.9c0.9,4.8,1.1,9.6-5.2,11.3c-1.1,0.3-2,1.2-2.2,2.3c-0.9,4.8-3.6,9.2-3.5,14.3
		c-1.6,1.9-3.5,0.8-5.3,0.5c-5.2-0.8-10.5-2.9-15.1,1.9c-1.1,1.2-3,0.6-4.4-0.4c0-3.3,0-6.7,0-10c-0.2-3.9,2.1-7.5,5.7-9.1
		c1.5-0.5,2.9-1.1,4.2-2c1.6-0.9,3.9-0.4,4.8-2.6c-1.7-1.5-3.2-0.4-4.8,0.2c-1.5,0.3-2.6,1.6-4.2,1.6c-2.8,0.4-4.6,4.8-7.9,1.2
		c-1,2.1-0.4,4-1.6,5.5l-0.6-0.6c-0.8-5-0.2-10.1-0.4-15.1c0-0.5,0.1-1,0.1-1.5c2.2-4.2,3.2-9,6.8-12.4c1.1-1.9,2.4-3.6,3.6-5.5
		s2.9-2.7,5.2-1.7c2.2,1.4,4.1,2,4.2-1.7C222.9,147,223.2,146.1,223.9,145.4z"/>
</g>
<g id="SPLINE-10">
	<path class="st0" d="M127.4,333.5c-8.3-0.2-12.8-6.5-11.4-15.4c2.1-13.1,10-22.7,19.6-31.1c5.2-4.6,11.1-8.4,18.4-9.3
		c3.4-0.5,6.5,0.1,8.5,2.8c2,2.7-0.2,5.2-2,7.1c-10.2,11.5-17.4,24.8-23.3,38.9C135.4,330.9,132.3,333.8,127.4,333.5z"/>
</g>
<g id="HATCH-9">
	<path class="st6" d="M127.4,333.5c-8.3-0.2-12.8-6.5-11.4-15.4c2.1-13.1,10-22.7,19.6-31.1c5.2-4.6,11.1-8.4,18.4-9.3
		c3.4-0.5,6.5,0.1,8.5,2.8c2,2.7-0.2,5.2-2,7.1c-10.2,11.5-17.4,24.8-23.3,38.9C135.4,330.9,132.3,333.8,127.4,333.5z"/>
</g>
<g id="SPLINE-11">
	<path class="st0" d="M176.6,218.3l-1.9,4.7h-0.9c-1.3-1.6-5-1.2-3.9-4.8c-4.3-4.3-7.1-4.3-10.2-0.1c-4.9-5.2-11.6-6.4-17.5-2.7
		c-1.6,1.1-3.7,1.1-5.3,0c-1.8-1-0.5-2.6-0.1-4.1c0.9-3.3-3.7-5.2-4-5c-4.9,2.9-4.8-2.7-7.2-4c4.8,0.1,9.6,1.3,13.4-2.8
		c0.8-0.6,1.9-0.4,2.4,0.4c0,0,0.1,0.1,0.1,0.1c1.7,4.2,5.2,1.9,7.9,2.1c2.3,0.2,4.2,0.1,4,3.1c0,0.7,0,1.4,0.6,1.6
		c5,1.5,9.9,3.9,15.4,2.6c1.1-0.3,1.2-1.4,1.4-2.3c0.5-1.7,0.9-3.4,2.7-4.2c5.8-3.1,12-3.5,18.3-2.2c3.2,0.7,5.5-0.1,7.4-2.6l1,1.9
		c2.6,1.8,1.9,4.5,1.7,6.8s-0.3,4.9-0.5,7.3c-0.9,1.7-2.9,2.3-4,3.8c-1.6,1.2-3.5,2.2-5.5,2.7c-1.3,0.1-2.4,0.9-2.8,2.2
		c-0.5,1.4-1.9,2.2-3.3,2c-4.2,2.2-4.4-2.4-6.5-3.8C178.6,218,178.6,218,176.6,218.3z"/>
</g>
<g id="HATCH-10">
	<path class="st1" d="M176.6,218.3l-1.9,4.7h-0.9c-1.3-1.6-5-1.2-3.9-4.8c-4.3-4.3-7.1-4.3-10.2-0.1c-4.9-5.2-11.6-6.4-17.5-2.7
		c-1.6,1.1-3.7,1.1-5.3,0c-1.8-1-0.5-2.6-0.1-4.1c0.9-3.3-3.7-5.2-4-5c-4.9,2.9-4.8-2.7-7.2-4c4.8,0.1,9.6,1.3,13.4-2.8
		c0.8-0.6,1.9-0.4,2.4,0.4c0,0,0.1,0.1,0.1,0.1c1.7,4.2,5.2,1.9,7.9,2.1c2.3,0.2,4.2,0.1,4,3.1c0,0.7,0,1.4,0.6,1.6
		c5,1.5,9.9,3.9,15.4,2.6c1.1-0.3,1.2-1.4,1.4-2.3c0.5-1.7,0.9-3.4,2.7-4.2c5.8-3.1,12-3.5,18.3-2.2c3.2,0.7,5.5-0.1,7.4-2.6l1,1.9
		c2.6,1.8,1.9,4.5,1.7,6.8s-0.3,4.9-0.5,7.3c-0.9,1.7-2.9,2.3-4,3.8c-1.6,1.2-3.5,2.2-5.5,2.7c-1.3,0.1-2.4,0.9-2.8,2.2
		c-0.5,1.4-1.9,2.2-3.3,2c-4.2,2.2-4.4-2.4-6.5-3.8C178.6,218,178.6,218,176.6,218.3z"/>
</g>
<g id="SPLINE-12">
	<path class="st0" d="M207.1,201.1c1.3-0.6,2.5-1.4,3.6-2.2c2.7-2.8,6.7-3.8,10.4-2.7c3.6,1,7.6,0.5,10.8,3
		c-0.8,6.6-1.6,13.3-4.9,19.3c-0.4,0.8-1,1.5-1.7,2.6c-2-2.4-1.8-4.8-0.2-8.2c-3.9,1.7-3.7,5.3-6.3,6.3c-1.3,0.3-2.6-0.4-3.2-1.5
		c-1-1-1.9-2.1-2.8-3.2l-2.8-1c-1.8-1.1-1-3.8-2.8-4.9V201.1z"/>
</g>
<g id="HATCH-11">
	<path class="st1" d="M207.1,201.1c1.3-0.6,2.5-1.4,3.6-2.2c2.7-2.8,6.7-3.8,10.4-2.7c3.6,1,7.6,0.5,10.8,3
		c-0.8,6.6-1.6,13.3-4.9,19.3c-0.4,0.8-1,1.5-1.7,2.6c-2-2.4-1.8-4.8-0.2-8.2c-3.9,1.7-3.7,5.3-6.3,6.3c-1.3,0.3-2.6-0.4-3.2-1.5
		c-1-1-1.9-2.1-2.8-3.2l-2.8-1c-1.8-1.1-1-3.8-2.8-4.9V201.1z"/>
</g>
<g id="SPLINE-13">
	<path class="st0" d="M191.9,219.3c0.9-2.4,2.6-2.7,4.8-2c4,0.7,1.7,4.9,3.7,6.6c1.4,2.1,0.9,4.4,1,6.7c-2.5,4.8-2.5,4.8-9.2,1.2
		C191,227.7,188.1,223.6,191.9,219.3z"/>
</g>
<g id="HATCH-12">
	<path class="st7" d="M191.9,219.3c0.9-2.4,2.6-2.7,4.8-2c4,0.7,1.7,4.9,3.7,6.6c1.4,2.1,0.9,4.4,1,6.7c-2.5,4.8-2.5,4.8-9.2,1.2
		C191,227.7,188.1,223.6,191.9,219.3z"/>
</g>
<g id="SPLINE-14">
	<path class="st0" d="M191.9,219.3l2.1,12.3c2.2,2.3,4.4,4.7,0.9,7.7c-4.1-3.1-5.9-8.2-9.7-11.4c0.3-1,0.6-1.9,0.9-2.9
		C187.6,222.6,186.8,218,191.9,219.3z"/>
</g>
<g id="HATCH-13">
	<path class="st5" d="M191.9,219.3l2.1,12.3c2.2,2.3,4.4,4.7,0.9,7.7c-4.1-3.1-5.9-8.2-9.7-11.4c0.3-1,0.6-1.9,0.9-2.9
		C187.6,222.6,186.8,218,191.9,219.3z"/>
</g>
<g id="SPLINE-15">
	<path class="st0" d="M199.2,214.7c2.4-4.6,0.8-9.7,1.3-14.5c4.1-2.8,3.9,0.8,3.7,2.9c-0.7,7,0.2,14,0.1,21
		c-0.5,0.6-0.8,1.5-1.9,0.9v-7.4c-2,0.4-1.3,1.9-1.9,2.6C197.3,219,198.4,216.8,199.2,214.7z"/>
</g>
<g id="HATCH-14">
	<path class="st8" d="M199.2,214.7c2.4-4.6,0.8-9.7,1.3-14.5c4.1-2.8,3.9,0.8,3.7,2.9c-0.7,7,0.2,14,0.1,21
		c-0.5,0.6-0.8,1.5-1.9,0.9v-7.4c-2,0.4-1.3,1.9-1.9,2.6C197.3,219,198.4,216.8,199.2,214.7z"/>
</g>
<g id="SPLINE-16">
	<path class="st0" d="M197.6,191.6c-2-0.8-3.7-1.8-6.2-1.2c-1.8,0.4-4.9,1.2-4.4-3.1c0.2-1.6-2.7-1.8-4.3-2.2
		c-2.1-0.5-4.3-0.7-4.8-4.2c3.9,2,7.5,2.4,11.2,2.9c4.1,0.6,7.8,2.5,9.4,6.9L197.6,191.6z"/>
</g>
<g id="HATCH-15">
	<path class="st9" d="M197.6,191.6c-2-0.8-3.7-1.8-6.2-1.2c-1.8,0.4-4.9,1.2-4.4-3.1c0.2-1.6-2.7-1.8-4.3-2.2
		c-2.1-0.5-4.3-0.7-4.8-4.2c3.9,2,7.5,2.4,11.2,2.9c4.1,0.6,7.8,2.5,9.4,6.9L197.6,191.6z"/>
</g>
<g id="SPLINE-17">
	<path class="st0" d="M212.8,214.5c1.8-0.6,2.8,0.6,3.9,1.7c-0.2,5.6-2.9,10.5-4.8,15.6c-0.7,1.5-0.7,4.1-3,3.4
		c-1.9-0.5-1.3-2.9-1.1-4.6C208.6,225,210.9,219.8,212.8,214.5z"/>
</g>
<g id="HATCH-16">
	<path class="st10" d="M212.8,214.5c1.8-0.6,2.8,0.6,3.9,1.7c-0.2,5.6-2.9,10.5-4.8,15.6c-0.7,1.5-0.7,4.1-3,3.4
		c-1.9-0.5-1.3-2.9-1.1-4.6C208.6,225,210.9,219.8,212.8,214.5z"/>
</g>
<g id="SPLINE-18">
	<path class="st0" d="M194.9,239.3c-0.3-2.6-0.6-5.1-0.9-7.7c2.5-0.2,5.3,1.9,7.5-1c-0.1,3.1-0.1,6.2-0.5,9.3c-0.2,1.4,0,3.5-2,3.8
		c-1.7,0.2-2.6-1.5-3.5-2.8C195.2,240.4,195,239.9,194.9,239.3z"/>
</g>
<g id="HATCH-17">
	<path class="st11" d="M194.9,239.3c-0.3-2.6-0.6-5.1-0.9-7.7c2.5-0.2,5.3,1.9,7.5-1c-0.1,3.1-0.1,6.2-0.5,9.3c-0.2,1.4,0,3.5-2,3.8
		c-1.7,0.2-2.6-1.5-3.5-2.8C195.2,240.4,195,239.9,194.9,239.3z"/>
</g>
<g id="SPLINE-19">
	<path class="st0" d="M218.7,232.6c-1.7,4.7-3,9.7-7,13.3c-0.8,0.6-1.9,0.6-2.8,0c-0.7-3.9,2.4-6.2,4.2-8.9c1.2-1.8,0.8-5.3,4.3-5.4
		L218.7,232.6z"/>
</g>
<g id="HATCH-18">
	<path class="st10" d="M218.7,232.6c-1.7,4.7-3,9.7-7,13.3c-0.8,0.6-1.9,0.6-2.8,0c-0.7-3.9,2.4-6.2,4.2-8.9
		c1.2-1.8,0.8-5.3,4.3-5.4L218.7,232.6z"/>
</g>
<g id="SPLINE-20">
	<path class="st0" d="M211.9,231.8c0.5-5.5,1.4-10.9,4.8-15.6c1.4,0.5,1.5,2,2.2,3C216.4,223.4,215.4,228.3,211.9,231.8z"/>
</g>
<g id="HATCH-19">
	<path class="st12" d="M211.9,231.8c0.5-5.5,1.4-10.9,4.8-15.6c1.4,0.5,1.5,2,2.2,3C216.4,223.4,215.4,228.3,211.9,231.8z"/>
</g>
<g id="SPLINE-21">
	<path class="st0" d="M202.4,225l1.9-0.9c-0.6,7.1,0.8,14.3-0.4,21.3h-1.4V225z"/>
</g>
<g id="HATCH-20">
	<path class="st13" d="M202.4,225l1.9-0.9c-0.6,7.1,0.8,14.3-0.4,21.3h-1.4V225z"/>
</g>
<g id="SPLINE-22">
	<path class="st0" d="M212.8,179.2c0.6-1.8,2.1-2.5,3.8-2.9c1,0.3,2.1,0.5,2.7,1.6c0.8,1.8-0.7,2.3-1.7,3.2
		c-0.6,5.2-2.8,2.6-4.8,0.9L212.8,179.2z"/>
</g>
<g id="HATCH-21">
	<path class="st14" d="M212.8,179.2c0.6-1.8,2.1-2.5,3.8-2.9c1,0.3,2.1,0.5,2.7,1.6c0.8,1.8-0.7,2.3-1.7,3.2
		c-0.6,5.2-2.8,2.6-4.8,0.9L212.8,179.2z"/>
</g>
<g id="SPLINE-23">
	<path class="st0" d="M217.6,231.6c-3.1,4.6-6.6,9-8.6,14.3c-1.6,0.2-1.5-0.8-1-1.6c2.4-4.3,4.9-8.6,7.5-12.9
		C216.2,230.2,217,230.4,217.6,231.6z"/>
</g>
<g id="HATCH-22">
	<path class="st15" d="M217.6,231.6c-3.1,4.6-6.6,9-8.6,14.3c-1.6,0.2-1.5-0.8-1-1.6c2.4-4.3,4.9-8.6,7.5-12.9
		C216.2,230.2,217,230.4,217.6,231.6z"/>
</g>
<g id="SPLINE-24">
	<path class="st0" d="M207.1,208.6l4.3,0.4c0.6,1.9-2.3,2.7-1.5,4.6c-1.3,1.4-2.3,3.1-2.8,4.9L207.1,208.6z"/>
</g>
<g id="HATCH-23">
	<path class="st16" d="M207.1,208.6l4.3,0.4c0.6,1.9-2.3,2.7-1.5,4.6c-1.3,1.4-2.3,3.1-2.8,4.9L207.1,208.6z"/>
</g>
<g id="SPLINE-25">
	<path class="st0" d="M199.2,214.7c1.1,1.7-0.6,4,1.3,5.6l-0.1,3.7c-1.5,0.7-1.7-0.1-1.9-1.4c-0.5-1.8-1.1-3.5-1.8-5.2L199.2,214.7z
		"/>
</g>
<g id="HATCH-24">
	<path class="st17" d="M199.2,214.7c1.1,1.7-0.6,4,1.3,5.6l-0.1,3.7c-1.5,0.7-1.7-0.1-1.9-1.4c-0.5-1.8-1.1-3.5-1.8-5.2L199.2,214.7
		z"/>
</g>
<g id="SPLINE-26">
	<path class="st0" d="M275.8,164.3c3.4-0.3,6.6-1.8,10.2-1.1C283.2,165.2,281.7,165.4,275.8,164.3z"/>
</g>
<g id="HATCH-25">
	<path class="st18" d="M275.8,164.3c3.4-0.3,6.6-1.8,10.2-1.1C283.2,165.2,281.7,165.4,275.8,164.3z"/>
</g>
<g id="SPLINE-27">
	<path class="st0" d="M201.3,190.7l0.1-13.4c0.4-0.3,0.9-0.3,1.2,0.1c0,0,0.1,0.1,0.1,0.1c0.5,2.8-0.5,5.6,0.6,8.4l0,0
		C201.9,187.2,203.7,189.8,201.3,190.7z"/>
</g>
<g id="HATCH-26">
	<path class="st15" d="M201.3,190.7l0.1-13.4c0.4-0.3,0.9-0.3,1.2,0.1c0,0,0.1,0.1,0.1,0.1c0.5,2.8-0.5,5.6,0.6,8.4
		C201.9,187.2,203.7,189.8,201.3,190.7z"/>
</g>
<g id="SPLINE-28">
	<path class="st0" d="M189.1,238.2c0-0.6,0-1.3,0-1.9l8.6,9.5C193.2,245.1,192.2,240.5,189.1,238.2z"/>
</g>
<g id="HATCH-27">
	<path class="st19" d="M189.1,238.2c0-0.6,0-1.3,0-1.9l8.6,9.5C193.2,245.1,192.2,240.5,189.1,238.2z"/>
</g>
<g id="SPLINE-29">
	<path class="st0" d="M241.4,138.3L241.4,138.3z"/>
</g>
<g id="HATCH-28">
	<path class="st20" d="M241.4,138.3L241.4,138.3z"/>
</g>
<g id="SPLINE-30">
	<path class="st0" d="M170,218.2c0.7,2.1,3.9,2.1,3.9,4.8c-3.7-0.1-7.2,0.4-9.3,4c-0.3,0.8-1.3,1.2-2.1,0.9
		c-0.2-0.1-0.4-0.2-0.6-0.4c-1.3-1-0.4-2,0.4-2.8C164.8,222.5,167.4,220.4,170,218.2z"/>
</g>
<g id="HATCH-29">
	<path class="st11" d="M170,218.2c0.7,2.1,3.9,2.1,3.9,4.8c-3.7-0.1-7.2,0.4-9.3,4c-0.3,0.8-1.3,1.2-2.1,0.9
		c-0.2-0.1-0.4-0.2-0.6-0.4c-1.3-1-0.4-2,0.4-2.8C164.8,222.5,167.4,220.4,170,218.2z"/>
</g>
<g id="SPLINE-31">
	<path class="st0" d="M191.9,106.9c5.3,1.7,7.4,6.6,10.5,10.5c1.8,1.5,2.9,3.1,1.9,5.7s0.2,5.2,0.5,7.7c0.3,2,0.6,3.9,0,5.9
		c-0.8,2.7-2.3,4.2-5.2,2.6l-2.9-2.9c-3.7-2.3-6.1-6-9.5-8.5c-0.6-2.5-2.7-4.8-1-7.6c2.2-0.9,1.2-2.9,1.6-4.4c0.9-2.5,2-4.9,3.5-7.1
		C191.4,108.1,191.4,107.4,191.9,106.9z"/>
</g>
<g id="HATCH-30">
	<path class="st2" d="M191.9,106.9c5.3,1.7,7.4,6.6,10.5,10.5c1.8,1.5,2.9,3.1,1.9,5.7s0.2,5.2,0.5,7.7c0.3,2,0.6,3.9,0,5.9
		c-0.8,2.7-2.3,4.2-5.2,2.6l-2.9-2.9c-3.7-2.3-6.1-6-9.5-8.5c-0.6-2.5-2.7-4.8-1-7.6c2.2-0.9,1.2-2.9,1.6-4.4c0.9-2.5,2-4.9,3.5-7.1
		C191.4,108.1,191.4,107.4,191.9,106.9z"/>
</g>
<g id="SPLINE-32">
	<path class="st0" d="M199.5,139.3c1.7-0.4,3.2-1.1,3.8-2.9c1.4-1,2.2-0.3,2.8,0.9c0.5,6-1.3,12.2,1,18.1c2.3-1.4,3,0.4,3.8,1.9
		c-1.9,3.2-4.4,6.1-4.9,10c-0.2,1.7-1.3,1.9-2.7,1.4c-1.2-1.4-2.5-2.6-3.8-3.9l-0.1-1c-1.6-2.2-5-3.1-4.7-6.6c1.1,0,2.2,0,3.3,0.2
		c3.6,0.9,4.4-0.9,4.4-4C202.4,148.6,202.9,143.6,199.5,139.3z"/>
</g>
<g id="HATCH-31">
	<path class="st21" d="M199.5,139.3c1.7-0.4,3.2-1.1,3.8-2.9c1.4-1,2.2-0.3,2.8,0.9c0.5,6-1.3,12.2,1,18.1c2.3-1.4,3,0.4,3.8,1.9
		c-1.9,3.2-4.4,6.1-4.9,10c-0.2,1.7-1.3,1.9-2.7,1.4c-1.2-1.4-2.5-2.6-3.8-3.9l-0.1-1c-1.6-2.2-5-3.1-4.7-6.6c1.1,0,2.2,0,3.3,0.2
		c3.6,0.9,4.4-0.9,4.4-4C202.4,148.6,202.9,143.6,199.5,139.3z"/>
</g>
<g id="SPLINE-33">
	<path class="st0" d="M210.9,157.3l-3.8-1.9c0.3-2.5,0.6-5.1,0.9-7.6c1.7-0.7,1.9-2.1,1.9-3.8c0-1.7-0.6-3.4,0.9-4.8l6.8,2.1
		c-1.6,1.4-3.4-0.2-5.8,1.2c3.8,1.6,7.7-0.2,10.4,2.4c1.4,4.4-1.7,5.1-4.8,5.7C213.8,151.3,213.4,155.4,210.9,157.3z"/>
</g>
<g id="HATCH-32">
	<path class="st22" d="M210.9,157.3l-3.8-1.9c0.3-2.5,0.6-5.1,0.9-7.6c1.7-0.7,1.9-2.1,1.9-3.8c0-1.7-0.6-3.4,0.9-4.8l6.8,2.1
		c-1.6,1.4-3.4-0.2-5.8,1.2c3.8,1.6,7.7-0.2,10.4,2.4c1.4,4.4-1.7,5.1-4.8,5.7C213.8,151.3,213.4,155.4,210.9,157.3z"/>
</g>
<g id="SPLINE-34">
	<path class="st0" d="M206.2,137.3l-2.8-0.9c0.1-6.3-0.3-12.7-1-19c0.9-0.3,1.6-1.1,1.8-2.1c-1.2-4.6,0.3-9.4-0.9-14
		c0.3-0.9,0.4-2.1,1.6-2c0.9,0.1,1.1,1.1,1.1,1.9c0.1,1.1,0,2.2-0.1,3.3c-0.4,3.4,0.1,5.4,4.6,2.1c-2.7,4.7-4.4,10-5,15.4
		c-0.3,3.2-0.3,5.9,1,8.6C207.6,133.1,208,135.2,206.2,137.3z"/>
</g>
<g id="HATCH-33">
	<path class="st21" d="M206.2,137.3l-2.8-0.9c0.1-6.3-0.3-12.7-1-19c0.9-0.3,1.6-1.1,1.8-2.1c-1.2-4.6,0.3-9.4-0.9-14
		c0.3-0.9,0.4-2.1,1.6-2c0.9,0.1,1.1,1.1,1.1,1.9c0.1,1.1,0,2.2-0.1,3.3c-0.4,3.4,0.1,5.4,4.6,2.1c-2.7,4.7-4.4,10-5,15.4
		c-0.3,3.2-0.3,5.9,1,8.6C207.6,133.1,208,135.2,206.2,137.3z"/>
</g>
<g id="SPLINE-35">
	<path class="st0" d="M191.9,108.8c1.6,5.4-2.9,8.2-5,12l-0.7-0.6c0.1-0.8,0.4-1.6,0.2-2.3c-0.7-1.7-4.1-2.5-2.4-4.9
		c1.6-2.4,4.1-3.9,7-4.2C191.3,108.1,191.6,108.1,191.9,108.8z"/>
</g>
<g id="HATCH-34">
	<path class="st23" d="M191.9,108.8c1.6,5.4-2.9,8.2-5,12l-0.7-0.6c0.1-0.8,0.4-1.6,0.2-2.3c-0.7-1.7-4.1-2.5-2.4-4.9
		c1.6-2.4,4.1-3.9,7-4.2C191.3,108.1,191.6,108.1,191.9,108.8z"/>
</g>
<g id="SPLINE-36">
	<path class="st0" d="M194.8,157.3c1.8,2.1,4,3.8,4.7,6.6c-2.4-0.3-3.7-2.2-5.5-3.4c-2.6-1.6-4.8-4-8.3-3.8
		c-1.6,0.1-2.5-1.1-2.6-2.8C187.8,152.2,191.2,155.2,194.8,157.3z"/>
</g>
<g id="HATCH-35">
	<path class="st21" d="M194.8,157.3c1.8,2.1,4,3.8,4.7,6.6c-2.4-0.3-3.7-2.2-5.5-3.4c-2.6-1.6-4.8-4-8.3-3.8
		c-1.6,0.1-2.5-1.1-2.6-2.8C187.8,152.2,191.2,155.2,194.8,157.3z"/>
</g>
<g id="SPLINE-37">
	<path class="st0" d="M213.8,125.9c-0.2-1.4-0.4-2.8-0.8-4.2c-0.5-1.7-1.3-3.5,0.7-4.7s3.9-0.1,5.3,0.9c2,1.3-0.3,2.7-0.5,4.1
		C217.2,123.6,217.3,127.1,213.8,125.9z"/>
</g>
<g id="HATCH-36">
	<path class="st23" d="M213.8,125.9c-0.2-1.4-0.4-2.8-0.8-4.2c-0.5-1.7-1.3-3.5,0.7-4.7s3.9-0.1,5.3,0.9c2,1.3-0.3,2.7-0.5,4.1
		C217.2,123.6,217.3,127.1,213.8,125.9z"/>
</g>
<g id="SPLINE-38">
	<path class="st0" d="M217.6,150.7c1.1-2.3,4.2-2.9,4.8-5.7h0.9c0.9,1.7-0.7,5.1,3.5,4.3C223.2,153.9,221.8,154.1,217.6,150.7z"/>
</g>
<g id="HATCH-37">
	<path class="st23" d="M217.6,150.7c1.1-2.3,4.2-2.9,4.8-5.7h0.9c0.9,1.7-0.7,5.1,3.5,4.3C223.2,153.9,221.8,154.1,217.6,150.7z"/>
</g>
<g id="SPLINE-39">
	<path class="st0" d="M213.8,125.9c1.6-1.3,3.2-2.5,4.8-3.8c0.1,5.2-4.3,7.2-7.2,10.3c-0.4,0.6-1.2,0.7-1.8,0.2
		c-0.1-0.1-0.2-0.1-0.2-0.2c-0.6-0.8-0.1-1.5,0.4-2.1C211,128.8,212.4,127.4,213.8,125.9z"/>
</g>
<g id="HATCH-38">
	<path class="st21" d="M213.8,125.9c1.6-1.3,3.2-2.5,4.8-3.8c0.1,5.2-4.3,7.2-7.2,10.3c-0.4,0.6-1.2,0.7-1.8,0.2
		c-0.1-0.1-0.2-0.1-0.2-0.2c-0.6-0.8-0.1-1.5,0.4-2.1C211,128.8,212.4,127.4,213.8,125.9z"/>
</g>
<g id="SPLINE-40">
	<path class="st0" d="M235.7,133.5c-0.9,3.3-3.2,5.6-5.8,7.6c-0.3-0.3-0.6-0.5-0.8-0.9C228.1,136,229.2,134.9,235.7,133.5z"/>
</g>
<g id="HATCH-39">
	<path class="st9" d="M235.7,133.5c-0.9,3.3-3.2,5.6-5.8,7.6c-0.3-0.3-0.6-0.5-0.8-0.9C228.1,136,229.2,134.9,235.7,133.5z"/>
</g>
<g id="SPLINE-41">
	<path class="st0" d="M187.1,127.8c5.1,0.7,6.7,5.3,9.5,8.5C192.3,135.1,188.8,132,187.1,127.8z"/>
</g>
<g id="HATCH-40">
	<path class="st24" d="M187.1,127.8c5.1,0.7,6.7,5.3,9.5,8.5C192.3,135.1,188.8,132,187.1,127.8z"/>
</g>
<g id="SPLINE-42">
	<path class="st0" d="M199.6,164.9c2.4,0.2,3.7,1.4,3.8,3.9c-1.3,2.8,0.3,5.8-1,8.6h-0.9C201.8,173.1,201.2,168.8,199.6,164.9z"/>
</g>
<g id="HATCH-41">
	<path class="st25" d="M199.6,164.9c2.4,0.2,3.7,1.4,3.8,3.9c-1.3,2.8,0.3,5.8-1,8.6h-0.9C201.8,173.1,201.2,168.8,199.6,164.9z"/>
</g>
<g id="SPLINE-43">
	<path class="st0" d="M210.9,139.2c0,2,0,4,0,6s-0.8,2.9-2.8,2.5c0.8-1.9,1.1-4,1-6C209.1,140.6,209,139.2,210.9,139.2z"/>
</g>
<g id="HATCH-42">
	<path class="st26" d="M210.9,139.2c0,2,0,4,0,6s-0.8,2.9-2.8,2.5c0.8-1.9,1.1-4,1-6C209.1,140.6,209,139.2,210.9,139.2z"/>
</g>
<g id="SPLINE-44">
	<path class="st0" d="M203.4,101.3c1.8,4.6,0.6,9.3,0.9,14C202.3,110.8,203.8,106,203.4,101.3z"/>
</g>
<g id="HATCH-43">
	<path class="st27" d="M203.4,101.3c1.8,4.6,0.6,9.3,0.9,14C202.3,110.8,203.8,106,203.4,101.3z"/>
</g>
<g id="SPLINE-45">
	<path class="st0" d="M191.9,108.8h-0.9c0.3-0.6,0.6-1.3,0.9-1.9C191.9,107.5,191.9,108.1,191.9,108.8z"/>
</g>
<g id="HATCH-44">
	<path class="st20" d="M191.9,108.8h-0.9c0.3-0.6,0.6-1.3,0.9-1.9C191.9,107.5,191.9,108.1,191.9,108.8z"/>
</g>
<g id="SPLINE-46">
	<path class="st0" d="M229.1,140.3l0.8,0.9h-0.8C229.1,140.8,229.1,140.6,229.1,140.3z"/>
</g>
<g id="HATCH-45">
	<path class="st28" d="M229.1,140.3l0.8,0.9h-0.8C229.1,140.8,229.1,140.6,229.1,140.3z"/>
</g>
<g id="SPLINE-47">
	<path class="st0" d="M176.6,218.3c-0.8-0.4-1.6-0.9-2.4-1.5c-1-0.6-1.3-1.9-0.7-2.9c1.1-1.6,1.9,0,2.6,0.6c2.2,1.7,4.1,3.5,3.3,6.7
		L176.6,218.3z"/>
</g>
<g id="HATCH-46">
	<path class="st25" d="M176.6,218.3c-0.8-0.4-1.6-0.9-2.4-1.5c-1-0.6-1.3-1.9-0.7-2.9c1.1-1.6,1.9,0,2.6,0.6
		c2.2,1.7,4.1,3.5,3.3,6.7L176.6,218.3z"/>
</g>
<g id="SPLINE-48">
	<path class="st0" d="M217.6,181.1c-0.5,0.3-1.1,1-1.5,0.9c-0.9-0.2-0.5-0.9-0.2-1.4c0.7-1,2.4-0.9,2.6-2.4c2-2.7,4.9-2.1,7.6-1.9
		c0.5,1.7,1.2,3.3-1.8,3.4C222.1,179.8,219.9,180.7,217.6,181.1z"/>
</g>
<g id="HATCH-47">
	<path class="st23" d="M217.6,181.1c-0.5,0.3-1.1,1-1.5,0.9c-0.9-0.2-0.5-0.9-0.2-1.4c0.7-1,2.4-0.9,2.6-2.4c2-2.7,4.9-2.1,7.6-1.9
		c0.5,1.7,1.2,3.3-1.8,3.4C222.1,179.8,219.9,180.7,217.6,181.1z"/>
</g>
<g id="SPLINE-49">
	<path class="st0" d="M226.2,176.4c-2.5,0.9-4.9,1.9-7.6,1.9c-0.9-0.3-1.6-1-1.9-1.9C219.8,174.9,223,173.9,226.2,176.4z"/>
</g>
<g id="HATCH-48">
	<path class="st29" d="M226.2,176.4c-2.5,0.9-4.9,1.9-7.6,1.9c-0.9-0.3-1.6-1-1.9-1.9C219.8,174.9,223,173.9,226.2,176.4z"/>
</g>
<g id="SPLINE-50">
	<path class="st0" d="M212.8,160.2c2.1-1.8,4-3.1,3.9-6.6C218.7,158.6,217.9,159.9,212.8,160.2z"/>
</g>
<g id="HATCH-49">
	<path class="st30" d="M212.8,160.2c2.1-1.8,4-3.1,3.9-6.6C218.7,158.6,217.9,159.9,212.8,160.2z"/>
</g>
<g id="SPLINE-51">
	<path class="st0" d="M202.4,177.3c0.2-2.9-0.6-5.9,1-8.6v17.1C201.8,183.2,202.6,180.2,202.4,177.3z"/>
</g>
<g id="HATCH-50">
	<path class="st1" d="M202.4,177.3c0.2-2.9-0.6-5.9,1-8.6v17.1C201.8,183.2,202.6,180.2,202.4,177.3z"/>
</g>
<polygon class="st0" points="174.8,106.8 174.7,109.7 175.5,109.7 176.1,109.5 177,108.9 177.4,108.1 177.7,107.4 177.8,106.9 
	175.6,106.6 175.7,105.8 176.7,104.8 176.9,103.3 174.8,102.1 173.1,105.3 173.1,108.7 "/>
<path class="st0" d="M175.1,106.2c-2.1,0.1-1.3,2.1-1.3,2.1"/>
<text transform="matrix(1 0 0 1 153.3381 377.4927)" class="st31 st32">F</text>
<text transform="matrix(1 0 0 1 158.8082 377.4927)" class="st31 st32">ood</text>
<text transform="matrix(1 0 0 1 119.4482 344.7527)" class="st33 st34 st35">A </text>
<text transform="matrix(1 0 0 1 161.6182 344.7527)" class="st33 st34 st35 st36">B</text>
<text transform="matrix(1 0 0 1 185.4581 344.7527)" class="st33 st34 st35">it </text>
<text transform="matrix(1 0 0 1 227.7181 344.7527)" class="st33 st34 st35">o</text>
<text transform="matrix(1 0 0 1 250.9082 344.7527)" class="st33 st34 st35">f </text>
<text transform="matrix(1 0 0 1 148.2682 414.3528)" class="st33 st34 st35">F</text>
<text transform="matrix(1 0 0 1 176.4182 414.3528)" class="st33 st34 st35">oo</text>
<text transform="matrix(1 0 0 1 222.6382 414.3528)" class="st33 st34 st35">d.</text>
</svg>
