<svg id="Layer_1" data-name="Layer 1" xmlns="http://www.w3.org/2000/svg" viewBox="0 0 493.06 496">
  <defs>
    <style>
      .svg-fill {
        <!-- fill: none; -->
        <!-- stroke: #000; -->
        stroke-miterlimit: 10;
        stroke-width: 10px;
      }
    </style>
  </defs>
  <title>fuse-box</title>
  <ellipse class="svg-fill" cx="246.53" cy="248" rx="241.53" ry="243"/>
  <g>
    <path d="M333,224.53H162.35v93.06H333ZM286.43,240h15.51v15.51H286.43Zm-46.53,0h15.51v15.51H239.9Zm-46.53,0h15.51v15.51H193.37Zm23.26,46.53h-7.75v15.51H193.37V286.57h-7.76V271.06h31Zm46.53,0h-7.75v15.51H239.9V286.57h-7.76V271.06h31Zm46.54,0h-7.76v15.51H286.43V286.57h-7.75V271.06h31Z"/>
    <path d="M340.72,131.47H380V116H340.72c-35.84,0-65.1,27.23-69,62H255.41V116H239.9v62H223.6c-3.91-34.81-33.18-62-69-62H115.3v15.51h39.29A54.21,54.21,0,0,1,208.1,178H192.58a38.83,38.83,0,0,0-38-31H115.3v15.51h39.29A23.22,23.22,0,0,1,176.43,178H115.3V380.66H380V178H318.88a23.22,23.22,0,0,1,21.84-15.51H380V147H340.72a38.83,38.83,0,0,0-38,31H287.21A54.21,54.21,0,0,1,340.72,131.47Zm7.75,201.63H146.84V209H348.47Z"/>
  </g>
</svg>
