<svg id="Layer_1" data-name="Layer 1" xmlns="http://www.w3.org/2000/svg" viewBox="0 0 493.06 496">
  <defs>
    <style>
      .svg-fill {
        fill: none;
        stroke: #000;
        stroke-miterlimit: 10;
        stroke-width: 10px;
      }
    </style>
  </defs>
  <title>light-bulb</title>
  <g>
    <ellipse class="svg-fill" cx="246.53" cy="248" rx="241.53" ry="243"/>
    <path d="M301,368.23v12.21a53.9,53.9,0,1,1-107.8,0V368.23Z"/>
    <path d="M335.49,97.64A140.18,140.18,0,0,1,319.54,326.4c-8.2,5-14.23,12.07-16.82,20.26H260.89l17-71.14a75.66,75.66,0,0,0,44.64-69V202l-32.35-32.34-21.56,21.56-21.56-21.56-21.56,21.56L204,169.65,171.63,202v4.53a75.66,75.66,0,0,0,44.63,69l17,71.14H191.47A34.75,34.75,0,0,0,175.73,327c-52-30.83-77.84-89.26-66-149.2,10.78-53.68,53.9-97.23,107.16-108.23C259.38,60.77,302.5,70.9,335.49,97.64Z"/>
    <path d="M259.6,259.35l5.39-2a53.85,53.85,0,0,0,35.79-46.57l-10.57-10.56-21.56,21.56-21.56-21.56-21.56,21.56L204,200.27l-10.56,10.56A53.81,53.81,0,0,0,229.2,257.4l5.39,2,12.5,52Z"/>
  </g>
</svg>
