<svg viewBox="-61 0 511 511.99978"  xmlns="http://www.w3.org/2000/svg"><path d="m270.636719 419.972656v17.003906c0 41.414063-33.609375 75.023438-75.023438 75.023438-41.410156 0-75.023437-33.609375-75.023437-75.023438v-17.003906zm0 0"/><path d="m318.652344 43.355469c45.613281 37.210937 72.023437 92.425781 72.023437 151.546875 0 68.71875-35.109375 131.140625-94.230469 166.851562-11.402343 6.902344-19.804687 16.804688-23.40625 28.207032h-58.21875l23.707032-99.027344c37.511718-16.808594 62.121094-54.316406 62.121094-96.03125v-6.304688l-45.015626-45.011718-30.007812 30.007812-30.011719-30.007812-30.007812 30.007812-30.007813-30.007812-45.015625 45.011718v6.304688c0 41.714844 24.609375 79.222656 62.121094 96.03125l23.703125 99.027344h-58.214844c-3.601562-11.402344-11.40625-21.304688-21.90625-27.308594-72.324218-42.914063-108.335937-124.238282-91.828125-207.664063 15.003907-74.722656 75.023438-135.339843 149.144531-150.644531 59.117188-12.304688 119.136719 1.796875 165.050782 39.011719zm0 0"/><path d="m213.019531 268.425781 7.503907-2.703125c28.207031-9.902344 47.414062-35.410156 49.8125-64.820312l-14.703126-14.703125-30.007812 30.007812-30.011719-30.007812-30.007812 30.007812-30.011719-30.007812-14.703125 14.703125c2.402344 29.410156 21.605469 54.917968 49.816406 64.820312l7.5 2.703125 17.40625 72.320313zm0 0"/></svg>