<svg 
id="Layer_1" data-name="Layer 1"
 xmlns="http://www.w3.org/2000/svg" viewBox="0 0 493.07 496">
  <defs>
    <style>
      .svg-fill {
        fill: none;
        stroke: #000;
        stroke-miterlimit: 10;
        stroke-width: 10px;
      }
    </style>
  </defs>
  <title>plugs</title>
  <g>
    <path d="M415,332.56l-19.95-35.44V254.23H375.88V224.9c0-55-42.43-100.64-95.93-101.89C224.77,121.72,179.46,167.5,179.46,224v10.69c0,39.08,31.33,70.89,69.82,70.89a68.17,68.17,0,0,0,29-6.6c-14.61,16.37-35.49,26.85-58.91,26.85-44,0-79.79-36.34-79.79-81h19.94V201.88l20-35.44v-43.2h-20V83H139.57v40.24H120.38V83H100.44v40.24h-20v43.2l20,35.44v42.89h19.85s45.29,102.17,100.45,100.88c53.47-1.26,95.89-46.89,96.06-101.9v-9.14c-.17-39-31-70.67-68.89-70.67a66.39,66.39,0,0,0-28.53,6.58c14.38-16.32,34.93-26.77,58-26.77,43.31,0,78.54,36.23,78.57,80.77v29.71H336.75v42.89L316.8,332.56v43.2H336V416h19.94V375.76h19.19V416h19.94V375.76H415ZM297,234.28c0,27.83-22,50.48-49.08,50.48s-49.08-22.65-49.08-50.48,22-50.48,49.08-50.48S297,206.44,297,234.28Z" transform="translate(-3 -2)"/>
    <ellipse class="svg-fill" cx="246.53" cy="248" rx="241.53" ry="243"/>
  </g>
</svg>
