<svg height="512pt" viewBox="0 -31 512 512" width="512pt" xmlns="http://www.w3.org/2000/svg"><path d="m211 390h150c33 0 60 27 60 60h30c0-49.5-40.5-90-90-90h-150c-22.199219 0-41.398438-12-51.898438-30h-32.703124c12.300781 34.800781 45.601562 60 84.601562 60zm0 0"/><path d="m151 240h30v-60h-90v60h30v-30h30zm0 0"/><path d="m391 90h-90v30h-30v120h150v-120h-30zm0 90h-30v30h-30v-30h-30v-30h30v30h30v-30h30zm0 0"/><path d="m0 330h126.398438c-3.597657-9.300781-5.398438-19.5-5.398438-30v-30h-60v-120h150v120h-60v30c0 10.800781 3 21.300781 8.101562 30h352.898438v-330h-512zm241-240h30v-30h150v30h30v180h-210zm-60-30h30v60h-30zm-60 0h30v60h-30zm-60 0h30v60h-30zm0 0"/></svg>