<svg id="Layer_1" data-name="Layer 1" xmlns="http://www.w3.org/2000/svg" viewBox="0 0 1921 222">
  <defs>
    <style>
      .cls-1 {
        fill: #fff;
      }
    </style>
  </defs>
  <title>white-curve</title>
  <path class="cls-1" d="M1738,95c-40.2,11-451.5,119.5-896.2,39.5C841.8,134.5,94.5,0,31.8,0H1V220.3c1.4.2,2.9.5,4.3.8,3.8-.2,7.5-.2,11.1-.2,5.1,0,10.2.2,15.4.4H34c9.5-.9,19-.9,28.4-.9,5.5-.5,11-1,16.6-1.3V218H1921V41.4C1844.9,62.3,1797.6,78.7,1738,95Z"/>
  <rect class="cls-1" y="188.7" width="1919" height="33.3"/>
  <path class="cls-1" d="M1816,19.7"/>
  <path class="cls-1" d="M2048,450.7"/>
</svg>
