<svg id="Layer_1" data-name="Layer 1" xmlns="http://www.w3.org/2000/svg" viewBox="0 0 1920 229.71">
  <defs>
    <style>
      .cls-1 {
        fill: #fff;
      }
    </style>
  </defs>
  <title>white-curve</title>
  <path class="cls-1" d="M1737,960.26c-40.2,11-451.52,119.54-896.16,39.52,0,0-747.31-134.49-809.95-134.49H0v220.27c1.44.24,2.86.52,4.29.8,3.77-.15,7.48-.23,11.09-.23q7.66,0,15.37.45l2.27,0c9.46-.87,18.95-.86,28.44-.9,5.49-.53,11-1,16.59-1.26v-1.17H1920V906.72C1843.88,927.58,1796.62,943.94,1737,960.26Z" transform="translate(0 -865.29)"/>
  <rect class="cls-1" x="1" y="205.71" width="1919" height="24"/>
  <path class="cls-1" d="M1816,893" transform="translate(0 -865.29)"/>
  <path class="cls-1" d="M2048,1324" transform="translate(0 -865.29)"/>
</svg>
