<svg id="Layer_1" data-name="Layer 1" xmlns="http://www.w3.org/2000/svg" viewBox="0 0 1920.18 221.33">
  <defs>
    <style>
      .cls-1 {
        fill: #fff;
      }
    </style>
  </defs>
  <title>white-curve-invert</title>
  <path class="cls-1" d="M1919.11,601.94l-.18-176.6-1842,1.84v-1.1c-5.6-.3-11.1-.79-16.6-1.28-9.4,0-18.9,0-28.4-.88h-2.2c-5.2.2-10.3.41-15.4.41-3.6,0-7.3,0-11.1-.19-1.4.3-2.9.61-4.3.81l.22,220.3,30.8,0c62.7-.07,809.87-135.31,809.87-135.31,444.62-80.44,856,27.65,896.24,38.61C1795.67,564.77,1843,581.12,1919.11,601.94Z" transform="translate(1.07 -423.92)"/>
</svg>
