<svg id="Layer_1" data-name="Layer 1" xmlns="http://www.w3.org/2000/svg" viewBox="0 0 1920 200.51">
  <defs>
    <style>
      .cls-1 {
        fill: #fff;
      }
    </style>
  </defs>
  <title>white-curve</title>
  <path class="cls-1" d="M1915.91,886.5c-28-2.89-63.55-6.39-109.52-3-9.82.72-30.29,2.51-102.68,17-42.18,8.44-68.74,13.76-113.15,24.53C1488.22,949.85,1443,966.7,1380.85,983.5c-31.93,8.64-358.68,93.77-711.89,31,0,0-593.64-105.5-643.4-105.5H1v172.79c1.14.19,2.28.41,3.41.62,3-.11,5.94-.18,8.81-.18,4,0,8.13.12,12.2.36l1.81,0c7.52-.69,15.06-.67,22.6-.7,4.35-.42,8.71-.81,13.17-1V1080H1921V887Z" transform="translate(-1 -882.11)"/>
</svg>
