<svg id="Layer_1" data-name="Layer 1" xmlns="http://www.w3.org/2000/svg" viewBox="0 0 1921 222">
  <defs>
    <style>
      .cls-1 {
        fill: #fff;
      }
    </style>
  </defs>
  <title>white-curve</title>
  <path class="cls-1" d="M1,41.4V218H1843v1.1c5.6.3,11.1.8,16.6,1.3,9.4,0,18.9,0,28.4.9h2.2c5.2-.2,10.3-.4,15.4-.4,3.6,0,7.3,0,11.1.2,1.4-.3,2.9-.6,4.3-.8V0h-30.8c-62.7,0-810,134.5-810,134.5C635.5,214.5,224.2,106,184,95,124.4,78.7,77.1,62.3,1,41.4Z" transform="translate(0 0)"/>
  <rect class="cls-1" y="188.7" width="1919" height="33.3"/>
  <path class="cls-1" d="M1816,19.7" transform="translate(0 0)"/>
  <path class="cls-1" d="M2048,450.7" transform="translate(0 0)"/>
</svg>
